<svg width="22" height="22" viewBox="0 0 22 22" fill="none" xmlns="http://www.w3.org/2000/svg">
<path d="M3.66683 19.2507L4.5835 19.2507L4.5835 7.33398L3.66683 7.33398C2.65483 7.33398 1.8335 8.15532 1.8335 9.16732L1.8335 17.4173C1.8335 18.4293 2.65483 19.2507 3.66683 19.2507ZM18.3335 7.33398L11.9168 7.33398L12.9453 4.24665C13.3413 3.05957 12.4577 1.83398 11.2064 1.83398L11.0002 1.83398L6.41683 6.81882L6.41683 19.2507L16.5002 19.2507L20.0862 11.371C20.1091 11.2674 20.1448 11.1052 20.1668 11.0007L20.1668 9.16732C20.1668 8.15532 19.3455 7.33398 18.3335 7.33398Z" fill="white"/>
</svg>
